HIERARCHY
ROOT Pelvis
{
	OFFSET -0.217368 -24.078917 2.858379
	CHANNELS 6 Xposition Yposition Zposition Zrotation Yrotation Xrotation 
	JOINT Left_hip
	{
		OFFSET 5.858135 -8.228005 -1.766408
		CHANNELS 3 Zrotation Yrotation Xrotation
		JOINT Left_knee
		{
			OFFSET 4.345143 -38.646942 0.803700
			CHANNELS 3 Zrotation Yrotation Xrotation
			JOINT Left_ankle
			{
				OFFSET -1.479033 -42.687447 -3.742800
				CHANNELS 3 Zrotation Yrotation Xrotation
				JOINT Left_foot
				{
					OFFSET 4.105436 -6.028605 12.204244
					CHANNELS 3 Zrotation Yrotation Xrotation
					End Site
					{
						OFFSET 0.000000 0.000000 0.000000
					}
				}
			}
		}
	}
	JOINT Right_hip
	{
		OFFSET -6.030973 -9.051328 -1.354253
		CHANNELS 3 Zrotation Yrotation Xrotation
		JOINT Right_knee
		{
			OFFSET -4.325663 -38.368790 -0.484304
			CHANNELS 3 Zrotation Yrotation Xrotation
			JOINT Right_ankle
			{
				OFFSET 1.905555 -42.004566 -3.456167
				CHANNELS 3 Zrotation Yrotation Xrotation
				JOINT Right_foot
				{
					OFFSET -3.483987 -6.210554 13.032330
					CHANNELS 3 Zrotation Yrotation Xrotation
					End Site
					{
						OFFSET 0.000000 0.000000 0.000000
					}
				}
			}
		}
	}
	JOINT Spine1
	{
		OFFSET 0.443945 12.440353 -3.838522
		CHANNELS 3 Zrotation Yrotation Xrotation
		JOINT Spine2
		{
			OFFSET 0.448844 13.795640 2.682033
			CHANNELS 3 Zrotation Yrotation Xrotation
			JOINT Spine3
			{
				OFFSET -0.226460 5.603239 0.285504
				CHANNELS 3 Zrotation Yrotation Xrotation
				JOINT Neck
				{
					OFFSET -1.339018 21.163553 -3.346758
					CHANNELS 3 Zrotation Yrotation Xrotation
					JOINT Head
					{
						OFFSET 1.011321 8.893734 5.040987
						CHANNELS 3 Zrotation Yrotation Xrotation
						End Site
						{
							OFFSET 0.000000 0.000000 0.000000
						}
					}
				}
				JOINT Left_collar
				{
					OFFSET 7.170247 11.399971 -1.889817
					CHANNELS 3 Zrotation Yrotation Xrotation
					JOINT Left_shoulder
					{
						OFFSET 12.292140 4.520507 -1.904600
						CHANNELS 3 Zrotation Yrotation Xrotation
						JOINT Left_elbow
						{
							OFFSET 25.533188 -1.564902 -2.294648
							CHANNELS 3 Zrotation Yrotation Xrotation
							JOINT Left_wrist
							{
								OFFSET 26.570929 1.269810 -0.737473
								CHANNELS 3 Zrotation Yrotation Xrotation
								JOINT Left_palm
								{
									OFFSET 8.669054 -1.063602 -1.559429
									CHANNELS 3 Zrotation Yrotation Xrotation
									End Site
									{
										OFFSET 0.000000 0.000000 0.000000
									}
								}
							}
						}
					}
				}
				JOINT Right_collar
				{
					OFFSET -8.295364 11.247234 -2.370738
					CHANNELS 3 Zrotation Yrotation Xrotation
					JOINT Right_shoulder
					{
						OFFSET -11.322830 4.685326 -0.847207
						CHANNELS 3 Zrotation Yrotation Xrotation
						JOINT Right_elbow
						{
							OFFSET -26.012751 -1.436928 -3.126872
							CHANNELS 3 Zrotation Yrotation Xrotation
							JOINT Right_wrist
							{
								OFFSET -26.910841 0.679372 -0.602677
								CHANNELS 3 Zrotation Yrotation Xrotation
								JOINT Right_palm
								{
									OFFSET -8.875370 -0.865157 -1.010708
									CHANNELS 3 Zrotation Yrotation Xrotation
									End Site
									{
										OFFSET 0.000000 0.000000 0.000000
									}
								}
							}
						}
					}
				}
			}
		}
	}
}
MOTION
Frames: 5
Frame Time: 0.016667
-0.217368 70.222183 2.858379 -0.306398 3.797499 1.057053 8.747540 -0.089653 0.994306 -5.470037 0.631161 2.191653 5.794138 13.435639 8.318574 0.000000 0.000000 0.000000 -6.613383 0.371807 -5.202005 5.835349 -0.714201 7.969561 -5.361535 -14.574886 8.213953 0.000000 0.000000 0.000000 0.040950 -0.280104 6.805977 4.735227 -0.622891 -22.559946 -0.952185 -1.949332 25.878293 -2.093102 2.326832 -14.761663 0.000000 0.000000 0.000000 -28.149212 0.104532 -3.133342 -48.630487 -4.306895 -3.681704 -17.096709 -41.043366 7.958483 0.000000 0.000000 0.000000 0.000000 0.000000 0.000000 23.450783 4.327116 0.123275 49.747604 5.203047 -2.293179 3.390049 41.037857 2.527684 0.000000 0.000000 0.000000 0.000000 0.000000 0.000000 
-0.334614 70.305321 2.667310 0.066773 3.959813 1.505152 8.865993 -0.103905 0.137301 -6.160807 0.725750 2.457462 6.577055 14.756868 8.379964 0.000000 0.000000 0.000000 -7.019895 0.403093 -6.251094 6.172709 -0.781958 8.500984 -5.402879 -14.674696 8.360478 0.000000 0.000000 0.000000 0.196987 -0.283055 6.627108 5.345166 -0.755758 -22.882117 -1.240057 -2.518170 26.886711 -3.086494 2.975517 -16.652120 0.000000 0.000000 0.000000 -26.957758 1.149184 -3.634167 -50.943475 -4.674217 -3.712851 -18.223048 -45.985638 9.518777 0.000000 0.000000 0.000000 0.000000 0.000000 0.000000 21.835944 4.304927 0.212766 50.798956 5.546013 -2.199140 3.851209 45.124325 3.000593 0.000000 0.000000 0.000000 0.000000 0.000000 0.000000 
-0.541416 70.427078 2.346223 0.593102 4.658762 1.377262 8.216063 -0.110187 -0.622990 -6.105416 0.751983 4.141097 6.713142 15.033242 8.825892 0.000000 0.000000 0.000000 -6.709445 0.474830 -7.752452 4.739944 -0.527112 10.985242 -5.818163 -15.513470 8.577469 0.000000 0.000000 0.000000 0.786940 -0.357783 7.373802 5.114852 -0.728491 -22.449063 -0.945629 -2.023325 27.321413 -2.417022 2.582539 -16.412960 0.000000 0.000000 0.000000 -26.217506 0.170814 -2.934902 -51.028729 -5.470408 -3.387151 -21.260508 -52.122647 12.503811 0.000000 0.000000 0.000000 0.000000 0.000000 0.000000 21.456693 4.298320 0.232870 50.617690 5.409502 -2.247671 4.055406 50.376444 3.504563 0.000000 0.000000 0.000000 0.000000 0.000000 0.000000 
-0.866191 70.404800 1.928400 0.935859 6.514886 1.623494 9.279702 -0.130038 -1.899244 -6.783478 0.884673 5.422892 7.353948 16.152517 9.557373 0.000000 0.000000 0.000000 -7.515510 0.495179 -9.399539 5.985817 -0.815434 13.466020 -6.810525 -17.411634 8.133058 0.000000 0.000000 0.000000 1.509850 -0.495739 8.947633 6.102337 -0.967831 -22.642338 -0.950456 -3.052171 27.747467 -2.495677 2.654381 -17.137745 0.000000 0.000000 0.000000 -26.225837 0.450179 -3.107131 -51.252499 -7.123909 -2.706251 -29.237858 -59.544619 19.373583 0.000000 0.000000 0.000000 0.000000 0.000000 0.000000 20.458904 4.595467 0.460910 50.275317 6.585598 -1.752892 3.844404 56.446754 3.907377 0.000000 0.000000 0.000000 0.000000 0.000000 0.000000 
-1.262008 70.433640 1.509565 1.614550 6.877785 1.662838 8.830683 -0.145576 -2.852750 -6.596449 0.915538 7.888715 6.815257 15.169974 8.526786 0.000000 0.000000 0.000000 -8.119940 0.522823 -11.584844 6.461809 -0.987821 17.000615 -7.000930 -17.727054 7.116199 0.000000 0.000000 0.000000 2.469595 -0.695408 10.800632 6.094790 -1.003352 -22.182447 -0.457545 -3.275023 27.724427 -2.573322 2.726315 -17.924061 0.000000 0.000000 0.000000 -25.866826 -0.733916 -2.340476 -51.158199 -9.758840 -1.587092 -36.108223 -66.327117 26.839685 0.000000 0.000000 0.000000 0.000000 0.000000 0.000000 20.204567 5.189568 0.805614 49.201652 8.278197 -1.044798 1.983355 60.175236 3.175445 0.000000 0.000000 0.000000 0.000000 0.000000 0.000000 
